<svg width="33" height="31" viewBox="0 0 33 31" fill="none" xmlns="http://www.w3.org/2000/svg">
<path fill-rule="evenodd" clip-rule="evenodd" d="M16 2C9.92487 2 5 6.92487 5 13H3C3 5.8203 8.8203 0 16 0H17C24.1797 0 30 5.8203 30 13H28C28 6.92487 23.0751 2 17 2H16Z" fill="white"/>
<path d="M0 16C0 14.3431 1.34315 13 3 13H6C6.55228 13 7 13.4477 7 14V22C7 22.5523 6.55228 23 6 23H3C1.34315 23 0 21.6569 0 20V16Z" fill="white"/>
<path d="M33 16C33 14.3431 31.6569 13 30 13H27C26.4477 13 26 13.4477 26 14V22C26 22.5523 26.4477 23 27 23H30C31.6569 23 33 21.6569 33 20V16Z" fill="white"/>
<path fill-rule="evenodd" clip-rule="evenodd" d="M22 28C24.7614 28 27 25.7614 27 23H29C29 26.866 25.866 30 22 30H20V28H22Z" fill="white"/>
<path d="M15 29C15 27.8954 15.8954 27 17 27H19C20.1046 27 21 27.8954 21 29C21 30.1046 20.1046 31 19 31H17C15.8954 31 15 30.1046 15 29Z" fill="white"/>
<path d="M13 17.5C13 18.3284 12.3284 19 11.5 19C10.6716 19 10 18.3284 10 17.5C10 16.6716 10.6716 16 11.5 16C12.3284 16 13 16.6716 13 17.5Z" fill="white"/>
<path d="M18 17.5C18 18.3284 17.3284 19 16.5 19C15.6716 19 15 18.3284 15 17.5C15 16.6716 15.6716 16 16.5 16C17.3284 16 18 16.6716 18 17.5Z" fill="white"/>
<path d="M23 17.5C23 18.3284 22.3284 19 21.5 19C20.6716 19 20 18.3284 20 17.5C20 16.6716 20.6716 16 21.5 16C22.3284 16 23 16.6716 23 17.5Z" fill="white"/>
</svg>
